<mxfile host="app.diagrams.net" agent="Mozilla/5.0 (Windows NT 10.0; Win64; x64) AppleWebKit/537.36 (KHTML, like Gecko) Chrome/133.0.0.0 Safari/537.36" version="26.1.0">
  <diagram name="Page-1" id="SlW4962E-RbiIBDBZss2">
    <mxGraphModel dx="1313" dy="696" grid="1" gridSize="10" guides="1" tooltips="1" connect="1" arrows="1" fold="1" page="1" pageScale="1" pageWidth="827" pageHeight="1169" math="0" shadow="0">
      <root>
        <mxCell id="0" />
        <mxCell id="1" parent="0" />
        <mxCell id="CbIUsaz2GKmM31-lCiuR-1" value="&lt;p style=&quot;margin:0px;margin-top:4px;text-align:center;&quot;&gt;&lt;i&gt;User&lt;/i&gt;&lt;/p&gt;&lt;hr size=&quot;1&quot; style=&quot;border-style:solid;&quot;&gt;&lt;li data-end=&quot;223&quot; data-start=&quot;205&quot;&gt;&lt;code data-end=&quot;221&quot; data-start=&quot;207&quot;&gt;+userID: int&lt;/code&gt;&lt;/li&gt;&lt;li data-end=&quot;246&quot; data-start=&quot;227&quot;&gt;&lt;code data-end=&quot;244&quot; data-start=&quot;229&quot;&gt;+name: String&lt;/code&gt;&lt;/li&gt;&lt;li data-end=&quot;270&quot; data-start=&quot;250&quot;&gt;&lt;code data-end=&quot;268&quot; data-start=&quot;252&quot;&gt;+email: String&lt;/code&gt;&lt;/li&gt;&lt;li data-end=&quot;270&quot; data-start=&quot;250&quot;&gt;+role: String&lt;/li&gt;&lt;hr size=&quot;1&quot; style=&quot;border-style:solid;&quot;&gt;&lt;p style=&quot;margin:0px;margin-left:4px;&quot;&gt;+ method1(Type): Type&lt;br&gt;+ method2(Type, Type): Type&lt;/p&gt;" style="verticalAlign=top;align=left;overflow=fill;html=1;whiteSpace=wrap;" parent="1" vertex="1">
          <mxGeometry x="242.18" y="190" width="180" height="160" as="geometry" />
        </mxCell>
        <mxCell id="CbIUsaz2GKmM31-lCiuR-2" value="&lt;p style=&quot;margin:0px;margin-top:4px;text-align:center;&quot;&gt;Student&lt;/p&gt;&lt;hr size=&quot;1&quot; style=&quot;border-style:solid;&quot;&gt;&lt;p style=&quot;margin:0px;margin-left:4px;&quot;&gt;+studentID: int&lt;/p&gt;&lt;hr size=&quot;1&quot; style=&quot;border-style:solid;&quot;&gt;&lt;p style=&quot;margin:0px;margin-left:4px;&quot;&gt;+viewTimetable(): Timetable&lt;/p&gt;" style="verticalAlign=top;align=left;overflow=fill;html=1;whiteSpace=wrap;" parent="1" vertex="1">
          <mxGeometry x="32.18000000000001" y="400" width="190" height="80" as="geometry" />
        </mxCell>
        <mxCell id="CbIUsaz2GKmM31-lCiuR-5" value="&lt;p style=&quot;margin:0px;margin-top:4px;text-align:center;&quot;&gt;&lt;strong data-end=&quot;463&quot; data-start=&quot;450&quot;&gt;Professor&lt;/strong&gt;&lt;/p&gt;&lt;hr size=&quot;1&quot; style=&quot;border-style:solid;&quot;&gt;&lt;p style=&quot;margin:0px;margin-left:4px;&quot;&gt;+professorID: int&lt;/p&gt;&lt;hr size=&quot;1&quot; style=&quot;border-style:solid;&quot;&gt;&lt;p style=&quot;margin:0px;margin-left:4px;&quot;&gt;+updateSchedule(courseID, time): void&lt;/p&gt;" style="verticalAlign=top;align=left;overflow=fill;html=1;whiteSpace=wrap;" parent="1" vertex="1">
          <mxGeometry x="292.18" y="400" width="220" height="90" as="geometry" />
        </mxCell>
        <mxCell id="CbIUsaz2GKmM31-lCiuR-7" value="&lt;p style=&quot;margin:0px;margin-top:4px;text-align:center;&quot;&gt;Schedule&lt;/p&gt;&lt;hr size=&quot;1&quot; style=&quot;border-style:solid;&quot;&gt;&lt;li data-end=&quot;842&quot; data-start=&quot;820&quot;&gt;&lt;code data-end=&quot;840&quot; data-start=&quot;822&quot;&gt;+scheduleID: int&lt;/code&gt;&lt;/li&gt;&lt;li data-end=&quot;866&quot; data-start=&quot;846&quot;&gt;&lt;code data-end=&quot;864&quot; data-start=&quot;848&quot;&gt;+courseID: int&lt;/code&gt;&lt;/li&gt;&lt;li data-end=&quot;893&quot; data-start=&quot;870&quot;&gt;&lt;code data-end=&quot;891&quot; data-start=&quot;872&quot;&gt;+professorID: int&lt;/code&gt;&lt;/li&gt;&lt;li data-end=&quot;920&quot; data-start=&quot;897&quot;&gt;&lt;code data-end=&quot;918&quot; data-start=&quot;899&quot;&gt;+timeSlot: String&lt;/code&gt;&lt;/li&gt;&lt;li data-end=&quot;949&quot; data-start=&quot;924&quot;&gt;&lt;code data-end=&quot;947&quot; data-start=&quot;926&quot;&gt;+roomNumber: String&lt;/code&gt;&lt;/li&gt;" style="verticalAlign=top;align=left;overflow=fill;html=1;whiteSpace=wrap;" parent="1" vertex="1">
          <mxGeometry x="192.18" y="820" width="190" height="110" as="geometry" />
        </mxCell>
        <mxCell id="CbIUsaz2GKmM31-lCiuR-9" value="&lt;p style=&quot;margin:0px;margin-top:4px;text-align:center;&quot;&gt;Admin&lt;/p&gt;&lt;hr size=&quot;1&quot; style=&quot;border-style:solid;&quot;&gt;&lt;p style=&quot;margin:0px;margin-left:4px;&quot;&gt;+manageUsers(): void&lt;/p&gt;&lt;hr size=&quot;1&quot; style=&quot;border-style:solid;&quot;&gt;&lt;p style=&quot;margin:0px;margin-left:4px;&quot;&gt;+assignCourses(professorID, courseID): void&lt;/p&gt;" style="verticalAlign=top;align=left;overflow=fill;html=1;whiteSpace=wrap;" parent="1" vertex="1">
          <mxGeometry x="560.0000000000001" y="400" width="250" height="90" as="geometry" />
        </mxCell>
        <mxCell id="CbIUsaz2GKmM31-lCiuR-11" value="&lt;p style=&quot;margin:0px;margin-top:4px;text-align:center;&quot;&gt;Timetable&lt;/p&gt;&lt;hr size=&quot;1&quot; style=&quot;border-style:solid;&quot;&gt;&lt;li data-end=&quot;729&quot; data-start=&quot;706&quot;&gt;&lt;code data-end=&quot;727&quot; data-start=&quot;708&quot;&gt;+timetableID: int&lt;/code&gt;&lt;/li&gt;&lt;li data-end=&quot;750&quot; data-start=&quot;733&quot;&gt;&lt;code data-end=&quot;748&quot; data-start=&quot;735&quot;&gt;+date: Date&lt;/code&gt;&lt;/li&gt;&lt;hr size=&quot;1&quot; style=&quot;border-style:solid;&quot;&gt;&lt;p style=&quot;margin:0px;margin-left:4px;&quot;&gt;+getSchedule(userID): List&amp;lt;Schedule&amp;gt;&lt;/p&gt;" style="verticalAlign=top;align=left;overflow=fill;html=1;whiteSpace=wrap;" parent="1" vertex="1">
          <mxGeometry x="32.17999999999995" y="600" width="250" height="110" as="geometry" />
        </mxCell>
        <mxCell id="CbIUsaz2GKmM31-lCiuR-12" value="&lt;p style=&quot;margin:0px;margin-top:4px;text-align:center;&quot;&gt;Database&lt;/p&gt;&lt;hr size=&quot;1&quot; style=&quot;border-style:solid;&quot;&gt;&lt;p style=&quot;margin:0px;margin-left:4px;&quot;&gt;+sendNotification(userID, message): void&lt;/p&gt;" style="verticalAlign=top;align=left;overflow=fill;html=1;whiteSpace=wrap;" parent="1" vertex="1">
          <mxGeometry x="591" y="560" width="236" height="60" as="geometry" />
        </mxCell>
        <mxCell id="CbIUsaz2GKmM31-lCiuR-13" value="&lt;p style=&quot;margin:0px;margin-top:4px;text-align:center;&quot;&gt;Course&lt;/p&gt;&lt;hr size=&quot;1&quot; style=&quot;border-style:solid;&quot;&gt;&lt;li data-end=&quot;991&quot; data-start=&quot;971&quot;&gt;&lt;code data-end=&quot;989&quot; data-start=&quot;973&quot;&gt;+courseID: int&lt;/code&gt;&lt;/li&gt;&lt;li data-end=&quot;1020&quot; data-start=&quot;995&quot;&gt;&lt;code data-end=&quot;1018&quot; data-start=&quot;997&quot;&gt;+courseName: String&lt;/code&gt;&lt;/li&gt;&lt;li data-end=&quot;1043&quot; data-start=&quot;1024&quot;&gt;&lt;code data-end=&quot;1041&quot; data-start=&quot;1026&quot;&gt;+credits: int&lt;/code&gt;&lt;/li&gt;&lt;p style=&quot;margin:0px;margin-left:4px;&quot;&gt;&lt;br&gt;&lt;/p&gt;" style="verticalAlign=top;align=left;overflow=fill;html=1;whiteSpace=wrap;" parent="1" vertex="1">
          <mxGeometry x="382.18" y="650" width="190" height="90" as="geometry" />
        </mxCell>
        <mxCell id="h4QToj4Xpi78YSJ7JJxM-1" value="" style="endArrow=classic;html=1;rounded=0;exitX=0.5;exitY=0;exitDx=0;exitDy=0;edgeStyle=orthogonalEdgeStyle;entryX=-0.014;entryY=0.584;entryDx=0;entryDy=0;entryPerimeter=0;" edge="1" parent="1" source="CbIUsaz2GKmM31-lCiuR-2" target="CbIUsaz2GKmM31-lCiuR-1">
          <mxGeometry width="50" height="50" relative="1" as="geometry">
            <mxPoint x="352.18" y="450" as="sourcePoint" />
            <mxPoint x="127.18" y="280" as="targetPoint" />
            <Array as="points">
              <mxPoint x="127.18" y="283" />
            </Array>
          </mxGeometry>
        </mxCell>
        <mxCell id="h4QToj4Xpi78YSJ7JJxM-4" value="" style="endArrow=classic;html=1;rounded=0;entryX=1.001;entryY=0.561;entryDx=0;entryDy=0;entryPerimeter=0;edgeStyle=orthogonalEdgeStyle;exitX=0.5;exitY=0;exitDx=0;exitDy=0;" edge="1" parent="1" source="CbIUsaz2GKmM31-lCiuR-5" target="CbIUsaz2GKmM31-lCiuR-1">
          <mxGeometry width="50" height="50" relative="1" as="geometry">
            <mxPoint x="502.18" y="380" as="sourcePoint" />
            <mxPoint x="652.1800000000001" y="245" as="targetPoint" />
            <Array as="points">
              <mxPoint x="402.18" y="381" />
              <mxPoint x="462.18" y="381" />
              <mxPoint x="462.18" y="280" />
            </Array>
          </mxGeometry>
        </mxCell>
        <mxCell id="h4QToj4Xpi78YSJ7JJxM-5" value="" style="endArrow=classic;html=1;rounded=0;edgeStyle=orthogonalEdgeStyle;exitX=0.5;exitY=0;exitDx=0;exitDy=0;entryX=1;entryY=0.25;entryDx=0;entryDy=0;" edge="1" parent="1" target="CbIUsaz2GKmM31-lCiuR-1">
          <mxGeometry width="50" height="50" relative="1" as="geometry">
            <mxPoint x="696.1800000000001" y="400" as="sourcePoint" />
            <mxPoint x="582.1800000000001" y="210" as="targetPoint" />
            <Array as="points">
              <mxPoint x="696.1800000000001" y="381" />
              <mxPoint x="756.1800000000001" y="381" />
              <mxPoint x="756.1800000000001" y="230" />
            </Array>
          </mxGeometry>
        </mxCell>
        <mxCell id="h4QToj4Xpi78YSJ7JJxM-6" value="" style="edgeStyle=orthogonalEdgeStyle;fontSize=12;html=1;endArrow=ERmany;startArrow=ERmany;rounded=0;exitX=1.009;exitY=0.403;exitDx=0;exitDy=0;exitPerimeter=0;" edge="1" parent="1" source="CbIUsaz2GKmM31-lCiuR-13" target="CbIUsaz2GKmM31-lCiuR-5">
          <mxGeometry width="100" height="100" relative="1" as="geometry">
            <mxPoint x="582.1800000000001" y="690" as="sourcePoint" />
            <mxPoint x="282.18" y="450" as="targetPoint" />
            <Array as="points">
              <mxPoint x="582.1800000000001" y="686" />
              <mxPoint x="582.1800000000001" y="570" />
              <mxPoint x="402.18" y="570" />
            </Array>
          </mxGeometry>
        </mxCell>
        <mxCell id="h4QToj4Xpi78YSJ7JJxM-7" value="" style="edgeStyle=orthogonalEdgeStyle;fontSize=12;html=1;endArrow=ERmany;rounded=0;" edge="1" parent="1" target="CbIUsaz2GKmM31-lCiuR-11">
          <mxGeometry width="100" height="100" relative="1" as="geometry">
            <mxPoint x="32.18000000000001" y="432" as="sourcePoint" />
            <mxPoint x="-57.81999999999999" y="430" as="targetPoint" />
            <Array as="points">
              <mxPoint x="20" y="432" />
              <mxPoint x="20" y="655" />
            </Array>
          </mxGeometry>
        </mxCell>
        <mxCell id="h4QToj4Xpi78YSJ7JJxM-8" value="" style="edgeStyle=orthogonalEdgeStyle;fontSize=12;html=1;endArrow=ERmany;rounded=0;exitX=0;exitY=0.5;exitDx=0;exitDy=0;entryX=1;entryY=0.25;entryDx=0;entryDy=0;" edge="1" parent="1" source="CbIUsaz2GKmM31-lCiuR-5" target="CbIUsaz2GKmM31-lCiuR-11">
          <mxGeometry width="100" height="100" relative="1" as="geometry">
            <mxPoint x="312.18" y="460.06" as="sourcePoint" />
            <mxPoint x="282.18" y="510" as="targetPoint" />
            <Array as="points">
              <mxPoint x="292.18" y="450" />
              <mxPoint x="237.18" y="450" />
              <mxPoint x="237.18" y="510" />
              <mxPoint x="102.18" y="510" />
              <mxPoint x="102.18" y="587" />
            </Array>
          </mxGeometry>
        </mxCell>
        <mxCell id="h4QToj4Xpi78YSJ7JJxM-9" value="" style="edgeStyle=orthogonalEdgeStyle;fontSize=12;html=1;endArrow=ERmany;rounded=0;exitX=0.5;exitY=1;exitDx=0;exitDy=0;entryX=0.75;entryY=1;entryDx=0;entryDy=0;" edge="1" parent="1" source="CbIUsaz2GKmM31-lCiuR-7" target="CbIUsaz2GKmM31-lCiuR-11">
          <mxGeometry width="100" height="100" relative="1" as="geometry">
            <mxPoint x="375.17999999999984" y="949.91" as="sourcePoint" />
            <mxPoint x="229.42999999999984" y="729.4700000000001" as="targetPoint" />
            <Array as="points">
              <mxPoint x="287" y="980" />
              <mxPoint x="140" y="980" />
              <mxPoint x="140" y="785" />
              <mxPoint x="20" y="785" />
              <mxPoint x="20" y="740" />
              <mxPoint x="220" y="740" />
            </Array>
          </mxGeometry>
        </mxCell>
        <mxCell id="h4QToj4Xpi78YSJ7JJxM-11" value="" style="edgeStyle=orthogonalEdgeStyle;fontSize=12;html=1;endArrow=ERmany;rounded=0;exitX=0.772;exitY=1.002;exitDx=0;exitDy=0;entryX=1;entryY=0.75;entryDx=0;entryDy=0;exitPerimeter=0;" edge="1" parent="1" target="CbIUsaz2GKmM31-lCiuR-13">
          <mxGeometry width="100" height="100" relative="1" as="geometry">
            <mxPoint x="814.3720000000001" y="620.1200000000001" as="sourcePoint" />
            <mxPoint x="612.1800000000001" y="760" as="targetPoint" />
            <Array as="points">
              <mxPoint x="814" y="717" />
            </Array>
          </mxGeometry>
        </mxCell>
      </root>
    </mxGraphModel>
  </diagram>
</mxfile>
